<svg version="1.2" xmlns="http://www.w3.org/2000/svg" viewBox="0 0 44 44" width="44" height="44">
  <style>
    .a {
      fill: #267aaa
    }

    .b {
      fill: #4d91b9
    }

    .c {
      fill: #003b5c
    }

    .d {
      fill: #66a1c3
    }

    .e {
      fill: #b5bd00
    }

    .f {
      fill: #3381af
    }

    .g {
      fill: #00629b
    }
  </style>
  <path class="a" d="m15.5 40.7l1.8-4.3 5.9 5.8q-0.1 0-0.3 0c-2.8 0-5.3-0.6-7.4-1.5z" />
  <path class="a" d="m9 16.4l-3.7-3.2c1-1.9 2.2-3.6 3.7-5.1z" />
  <path class="b" d="m29.1 36.4h8.3c-1.9 1.8-4.1 3.3-6.6 4.3z" />
  <path class="b" d="m15.5 3.7c2.4-1 5-1.5 7.7-1.5l-5.9 5.8c0 0-1.8-4.3-1.8-4.3z" />
  <path class="b" d="m19 32.2l4.2 1.8-5.9 2.4z" />
  <path class="b" d="m23.2 10.5l5.9-2.5-1.8 4.2z" />
  <path class="c" d="m23.2 34l5.9 2.4-5.9 5.8z" />
  <path class="c" d="m4.7 14.5v0.1l4.3 1.7-5.8 5.9c0-2.7 0.5-5.3 1.5-7.7z" />
  <path class="c" d="m30.8 3.7l-1.7 4.3-5.9 2.5z" />
  <path class="c" d="m14.9 13.9l-5.9-5.9v4z" />
  <path class="c" d="m27.3 32.2l-2.5-6.2 6.1 6-1.8 4.4z" />
  <path class="c" d="m17.3 8l5.9 2.5-4.2 1.7z" />
  <path class="c" d="m10.4 19.8l-1.4-3.4 4.2 1.7-1 2.3z" />
  <path class="c" d="m14.9 30.5l4.1 1.7 2.7-6.3z" />
  <path class="c" d="m27 20.6l7.9 1.6-1.7-4.1z" />
  <path class="c" d="m35.8 20.1l-0.9 2.1h8.3z" />
  <path class="c" d="m15.5 40.7c-3.5-1.4-5.7-3.5-6.5-4.3h8.3z" />
  <path class="d" d="m31.5 13.9l5.8-1.3v3.8z" />
  <path class="d" d="m37.4 28.1l5.8-5.9c0 2.7-0.5 5.4-1.5 7.8z" />
  <path class="d" d="m23.2 34l4.1-1.8 1.8 4.2z" />
  <path class="d" d="m30.8 3.7c0 0 2.9 0.7 6.5 4.4h-6.5z" />
  <path class="e" d="m3.2 22.2h8.2l-2.4 5.9z" />
  <path class="e" d="m17.3 8l1.7 4.2-4.1 1.7z" />
  <path class="e" d="m33.2 26.4l4.2 1.7-2.5-5.9z" />
  <path class="e" d="m13.2 18.1l1.7-4.2-5.9 2.5z" />
  <path class="e" d="m19 32.2l-4.1-1.7 2.4 5.9z" />
  <path class="e" d="m13.2 26.4l1.7 4.1 4.6-6.7z" />
  <path class="e" d="m43.2 22.2l-5.9-5.8-1.5 3.7z" />
  <path class="e" d="m29.1 8l2.4 5.9-4.2-1.7z" />
  <path class="f" d="m12.2 20.4l5.2 1.8h-6l-1-2.4z" />
  <path class="f" d="m19 12.2l2.1-0.9 0.5 7z" />
  <path class="g" d="m29.1 36.4l-0.7 5.2q-2.5 0.7-5.2 0.7c0 0 5.9-5.9 5.9-5.9z" />
  <path class="g" d="m9 8c1.8-1.8 4.1-3.3 6.5-4.3l1.8 4.3z" />
  <path class="g" d="m4.7 29.9c1 2.4 2.5 4.6 4.3 6.5v-8.3z" />
  <path class="g" d="m31.5 30.5l5.9 5.9v-8.3z" />
  <path class="g" d="m33.2 18.1l4.1-1.7-5.8-2.5z" />
  <path class="g" d="m13.2 26.4l-4.2 1.7 5.9 2.4z" />
  <path class="g" d="m24.9 18.2l1.2-2.9 5.4-1.4z" />
  <path class="g" d="m41.7 14.6c-1-2.5-2.5-4.7-4.3-6.6v8.3z" />
  <path class="g" d="m23.2 2.2v8.3l4.4-3.9z" />
</svg>